%FSTAX23Y23*%
%MOIN*%
%SFA1B1*%

%IPPOS*%
%AMD17*
4,1,8,0.011800,-0.019600,0.011800,0.019600,0.009800,0.021700,-0.009800,0.021700,-0.011800,0.019600,-0.011800,-0.019600,-0.009800,-0.021700,0.009800,-0.021700,0.011800,-0.019600,0.0*
1,1,0.004016,0.009800,-0.019600*
1,1,0.004016,0.009800,0.019600*
1,1,0.004016,-0.009800,0.019600*
1,1,0.004016,-0.009800,-0.019600*
%
%ADD14R,0.022638X0.057087*%
%ADD15R,0.011811X0.057087*%
%ADD16C,0.009843*%
G04~CAMADD=17~8~0.0~0.0~433.1~236.2~20.1~0.0~15~0.0~0.0~0.0~0.0~0~0.0~0.0~0.0~0.0~0~0.0~0.0~0.0~270.0~237.0~433.0*
%ADD17D17*%
%ADD18R,0.023622X0.019685*%
%ADD19R,0.020472X0.022047*%
%ADD20R,0.031496X0.033465*%
%ADD21O,0.059055X0.023622*%
%ADD22R,0.039370X0.059055*%
%ADD23R,0.022047X0.020472*%
%ADD24R,0.017716X0.017716*%
%ADD25R,0.043307X0.074803*%
%ADD26R,0.045275X0.078740*%
%ADD54C,0.003937*%
%ADD56C,0.005000*%
%ADD9502C,0.035433*%
%LNql-eos-s3-breakout-1*%
%LPD*%
G36*
X00534Y01381D02*
X00539Y01375D01*
X00542Y01368*
Y01364*
Y01341*
Y01337*
X00539Y0133*
X00534Y01324*
X00526Y01321*
X00523*
X00519*
X00511Y01324*
X00506Y0133*
X00503Y01337*
Y01341*
Y01364*
Y01368*
X00506Y01375*
X00511Y01381*
X00519Y01384*
X00526*
X00534Y01381*
G37*
G36*
X00194D02*
X00199Y01375D01*
X00202Y01368*
Y01364*
Y01341*
Y01337*
X00199Y0133*
X00194Y01324*
X00186Y01321*
X00182*
X00179*
X00171Y01324*
X00166Y0133*
X00163Y01337*
Y01341*
Y01364*
Y01368*
X00166Y01375*
X00171Y01381*
X00179Y01384*
X00186*
X00194Y01381*
G37*
G36*
X00526Y01229D02*
X00534Y01226D01*
X00539Y0122*
X00542Y01213*
Y01209*
Y01166*
Y01162*
X00539Y01155*
X00534Y01149*
X00526Y01146*
X00523*
X00519Y01146*
X00511Y01149*
X00506Y01155*
X00503Y01162*
X00503Y01166*
X00503*
Y01209*
Y01213*
X00506Y0122*
X00511Y01226*
X00519Y01229*
X00523*
X00526*
G37*
G36*
X00186D02*
X00194Y01226D01*
X00199Y0122*
X00202Y01213*
Y01209*
Y01166*
Y01162*
X00199Y01155*
X00194Y01149*
X00186Y01146*
X00182*
X00182*
X00179Y01146*
X00171Y01149*
X00166Y01155*
X00163Y01162*
X00163Y01166*
X00163*
Y01209*
Y01213*
X00166Y0122*
X00171Y01226*
X00179Y01229*
X00182*
X00186*
G37*
G54D14*
X00226Y01152D03*
X00256D03*
X00479Y01152D03*
X00449Y01152D03*
G54D15*
X00421Y01152D03*
X00402D03*
X00382D03*
X00284D03*
X00303D03*
X00323D03*
X00343D03*
X00362D03*
G54D16*
X00424Y00928D03*
Y00912D03*
Y00896D03*
Y0088D03*
Y00865D03*
Y00849D03*
Y00833D03*
Y00817D03*
X00408Y00928D03*
Y00912D03*
Y00896D03*
Y0088D03*
Y00865D03*
Y00849D03*
Y00833D03*
Y00817D03*
X00392Y00928D03*
Y00912D03*
Y00896D03*
Y0088D03*
Y00865D03*
Y00849D03*
Y00833D03*
Y00817D03*
X00377Y00928D03*
Y00912D03*
Y00896D03*
Y0088D03*
Y00865D03*
Y00849D03*
Y00833D03*
Y00817D03*
X00361Y00928D03*
Y00912D03*
Y00896D03*
Y0088D03*
Y00865D03*
Y00849D03*
Y00833D03*
Y00817D03*
X00345Y00928D03*
Y00912D03*
Y00896D03*
Y0088D03*
Y00865D03*
Y00849D03*
Y00833D03*
Y00817D03*
X00329Y00928D03*
Y00912D03*
Y00896D03*
Y0088D03*
Y00865D03*
Y00849D03*
Y00833D03*
Y00817D03*
X00314Y00928D03*
Y00912D03*
Y00896D03*
Y0088D03*
Y00865D03*
Y00849D03*
Y00833D03*
Y00817D03*
G54D17*
X00567Y00853D03*
X00493D03*
Y00955D03*
X0053D03*
X00567D03*
G54D18*
X00188Y00815D03*
Y00851D03*
X00148Y00815D03*
Y00851D03*
G54D19*
X00329Y00739D03*
Y0077D03*
G54D20*
X00524Y01006D03*
X00473D03*
G54D21*
X00361Y00542D03*
Y00592D03*
Y00642D03*
Y00692D03*
X00148Y00542D03*
Y00592D03*
Y00642D03*
Y00692D03*
G54D22*
X00569Y01065D03*
X00483D03*
G54D23*
X00161Y005D03*
X0013D03*
X00561Y00806D03*
X0053D03*
X00471Y00664D03*
X0044D03*
X00519D03*
X00549D03*
G54D24*
X00443Y00534D03*
Y00502D03*
X00483Y00534D03*
Y00502D03*
X00443Y00609D03*
Y00577D03*
X00483Y00609D03*
Y00577D03*
X00294Y00739D03*
Y0077D03*
X00562Y00534D03*
Y00502D03*
Y00609D03*
Y00577D03*
X00522Y00609D03*
Y00577D03*
X00211Y01069D03*
Y01038D03*
X00176Y01069D03*
Y01038D03*
X00251D03*
Y01069D03*
X00428D03*
Y01038D03*
X00148Y00892D03*
Y00924D03*
X00188D03*
Y00892D03*
X00286Y01038D03*
Y01069D03*
X00321Y01038D03*
Y01069D03*
X00357Y01038D03*
Y01069D03*
X00392Y01038D03*
Y01069D03*
G54D25*
X00445Y00731D03*
X00544D03*
G54D26*
X00392Y00416D03*
X00563D03*
X00313D03*
X00142D03*
G36*
X01234Y01381D02*
X01239Y01375D01*
X01242Y01368*
Y01364*
Y01341*
Y01337*
X01239Y0133*
X01234Y01324*
X01226Y01321*
X01223*
X01219*
X01211Y01324*
X01206Y0133*
X01203Y01337*
Y01341*
Y01364*
Y01368*
X01206Y01375*
X01211Y01381*
X01219Y01384*
X01226*
X01234Y01381*
G37*
G36*
X00894D02*
X00899Y01375D01*
X00902Y01368*
Y01364*
Y01341*
Y01337*
X00899Y0133*
X00894Y01324*
X00886Y01321*
X00882*
X00879*
X00871Y01324*
X00866Y0133*
X00863Y01337*
Y01341*
Y01364*
Y01368*
X00866Y01375*
X00871Y01381*
X00879Y01384*
X00886*
X00894Y01381*
G37*
G36*
X01226Y01229D02*
X01234Y01226D01*
X01239Y0122*
X01242Y01213*
Y01209*
Y01166*
Y01162*
X01239Y01155*
X01234Y01149*
X01226Y01146*
X01223*
X01219Y01146*
X01211Y01149*
X01206Y01155*
X01203Y01162*
X01203Y01166*
X01203*
Y01209*
Y01213*
X01206Y0122*
X01211Y01226*
X01219Y01229*
X01223*
X01226*
G37*
G36*
X00886D02*
X00894Y01226D01*
X00899Y0122*
X00902Y01213*
Y01209*
Y01166*
Y01162*
X00899Y01155*
X00894Y01149*
X00886Y01146*
X00882*
X00882*
X00879Y01146*
X00871Y01149*
X00866Y01155*
X00863Y01162*
X00863Y01166*
X00863*
Y01209*
Y01213*
X00866Y0122*
X00871Y01226*
X00879Y01229*
X00882*
X00886*
G37*
G54D14*
X00926Y01152D03*
X00956D03*
X01179Y01152D03*
X01149Y01152D03*
G54D15*
X01121Y01152D03*
X01102D03*
X01082D03*
X00984D03*
X01003D03*
X01023D03*
X01043D03*
X01062D03*
G54D16*
X01124Y00928D03*
Y00912D03*
Y00896D03*
Y0088D03*
Y00865D03*
Y00849D03*
Y00833D03*
Y00817D03*
X01108Y00928D03*
Y00912D03*
Y00896D03*
Y0088D03*
Y00865D03*
Y00849D03*
Y00833D03*
Y00817D03*
X01092Y00928D03*
Y00912D03*
Y00896D03*
Y0088D03*
Y00865D03*
Y00849D03*
Y00833D03*
Y00817D03*
X01077Y00928D03*
Y00912D03*
Y00896D03*
Y0088D03*
Y00865D03*
Y00849D03*
Y00833D03*
Y00817D03*
X01061Y00928D03*
Y00912D03*
Y00896D03*
Y0088D03*
Y00865D03*
Y00849D03*
Y00833D03*
Y00817D03*
X01045Y00928D03*
Y00912D03*
Y00896D03*
Y0088D03*
Y00865D03*
Y00849D03*
Y00833D03*
Y00817D03*
X01029Y00928D03*
Y00912D03*
Y00896D03*
Y0088D03*
Y00865D03*
Y00849D03*
Y00833D03*
Y00817D03*
X01014Y00928D03*
Y00912D03*
Y00896D03*
Y0088D03*
Y00865D03*
Y00849D03*
Y00833D03*
Y00817D03*
G54D17*
X01267Y00853D03*
X01193D03*
Y00955D03*
X0123D03*
X01267D03*
G54D18*
X00888Y00815D03*
Y00851D03*
X00848Y00815D03*
Y00851D03*
G54D19*
X01029Y00739D03*
Y0077D03*
G54D20*
X01224Y01006D03*
X01173D03*
G54D21*
X01061Y00542D03*
Y00592D03*
Y00642D03*
Y00692D03*
X00848Y00542D03*
Y00592D03*
Y00642D03*
Y00692D03*
G54D22*
X01269Y01065D03*
X01183D03*
G54D23*
X00861Y005D03*
X0083D03*
X01261Y00806D03*
X0123D03*
X01171Y00664D03*
X0114D03*
X01219D03*
X01249D03*
G54D24*
X01143Y00534D03*
Y00502D03*
X01183Y00534D03*
Y00502D03*
X01143Y00609D03*
Y00577D03*
X01183Y00609D03*
Y00577D03*
X00994Y00739D03*
Y0077D03*
X01262Y00534D03*
Y00502D03*
Y00609D03*
Y00577D03*
X01222Y00609D03*
Y00577D03*
X00911Y01069D03*
Y01038D03*
X00876Y01069D03*
Y01038D03*
X00951D03*
Y01069D03*
X01128D03*
Y01038D03*
X00848Y00892D03*
Y00924D03*
X00888D03*
Y00892D03*
X00986Y01038D03*
Y01069D03*
X01021Y01038D03*
Y01069D03*
X01057Y01038D03*
Y01069D03*
X01092Y01038D03*
Y01069D03*
G54D25*
X01145Y00731D03*
X01244D03*
G54D26*
X01092Y00416D03*
X01263D03*
X01013D03*
X00842D03*
G36*
X01933Y01381D02*
X01938Y01375D01*
X01941Y01368*
Y01364*
Y01341*
Y01337*
X01938Y0133*
X01933Y01324*
X01925Y01321*
X01922*
X01918*
X0191Y01324*
X01905Y0133*
X01902Y01337*
Y01341*
Y01364*
Y01368*
X01905Y01375*
X0191Y01381*
X01918Y01384*
X01925*
X01933Y01381*
G37*
G36*
X01594D02*
X01599Y01375D01*
X01602Y01368*
Y01364*
Y01341*
Y01337*
X01599Y0133*
X01594Y01324*
X01586Y01321*
X01582*
X01579*
X01571Y01324*
X01566Y0133*
X01563Y01337*
Y01341*
Y01364*
Y01368*
X01566Y01375*
X01571Y01381*
X01579Y01384*
X01586*
X01594Y01381*
G37*
G36*
X01925Y01229D02*
X01933Y01226D01*
X01938Y0122*
X01941Y01213*
Y01209*
Y01166*
Y01162*
X01938Y01155*
X01933Y01149*
X01925Y01146*
X01922*
X01918Y01146*
X0191Y01149*
X01905Y01155*
X01902Y01162*
X01902Y01166*
X01902*
Y01209*
Y01213*
X01905Y0122*
X0191Y01226*
X01918Y01229*
X01922*
X01925*
G37*
G36*
X01586D02*
X01594Y01226D01*
X01599Y0122*
X01602Y01213*
Y01209*
Y01166*
Y01162*
X01599Y01155*
X01594Y01149*
X01586Y01146*
X01582*
X01582*
X01579Y01146*
X01571Y01149*
X01566Y01155*
X01563Y01162*
X01563Y01166*
X01563*
Y01209*
Y01213*
X01566Y0122*
X01571Y01226*
X01579Y01229*
X01582*
X01586*
G37*
G54D14*
X01626Y01152D03*
X01656D03*
X01878Y01152D03*
X01848Y01152D03*
G54D15*
X0182Y01152D03*
X01801D03*
X01781D03*
X01684D03*
X01703D03*
X01723D03*
X01743D03*
X01761D03*
G54D16*
X01823Y00928D03*
Y00912D03*
Y00896D03*
Y0088D03*
Y00865D03*
Y00849D03*
Y00833D03*
Y00817D03*
X01807Y00928D03*
Y00912D03*
Y00896D03*
Y0088D03*
Y00865D03*
Y00849D03*
Y00833D03*
Y00817D03*
X01791Y00928D03*
Y00912D03*
Y00896D03*
Y0088D03*
Y00865D03*
Y00849D03*
Y00833D03*
Y00817D03*
X01776Y00928D03*
Y00912D03*
Y00896D03*
Y0088D03*
Y00865D03*
Y00849D03*
Y00833D03*
Y00817D03*
X0176Y00928D03*
Y00912D03*
Y00896D03*
Y0088D03*
Y00865D03*
Y00849D03*
Y00833D03*
Y00817D03*
X01745Y00928D03*
Y00912D03*
Y00896D03*
Y0088D03*
Y00865D03*
Y00849D03*
Y00833D03*
Y00817D03*
X01729Y00928D03*
Y00912D03*
Y00896D03*
Y0088D03*
Y00865D03*
Y00849D03*
Y00833D03*
Y00817D03*
X01714Y00928D03*
Y00912D03*
Y00896D03*
Y0088D03*
Y00865D03*
Y00849D03*
Y00833D03*
Y00817D03*
G54D17*
X01966Y00853D03*
X01892D03*
Y00955D03*
X01929D03*
X01966D03*
G54D18*
X01588Y00815D03*
Y00851D03*
X01548Y00815D03*
Y00851D03*
G54D19*
X01729Y00739D03*
Y0077D03*
G54D20*
X01923Y01006D03*
X01872D03*
G54D21*
X0176Y00542D03*
Y00592D03*
Y00642D03*
Y00692D03*
X01548Y00542D03*
Y00592D03*
Y00642D03*
Y00692D03*
G54D22*
X01968Y01065D03*
X01882D03*
G54D23*
X01561Y005D03*
X0153D03*
X0196Y00806D03*
X01929D03*
X0187Y00664D03*
X01839D03*
X01918D03*
X01948D03*
G54D24*
X01842Y00534D03*
Y00502D03*
X01882Y00534D03*
Y00502D03*
X01842Y00609D03*
Y00577D03*
X01882Y00609D03*
Y00577D03*
X01694Y00739D03*
Y0077D03*
X01961Y00534D03*
Y00502D03*
Y00609D03*
Y00577D03*
X01921Y00609D03*
Y00577D03*
X01611Y01069D03*
Y01038D03*
X01576Y01069D03*
Y01038D03*
X01651D03*
Y01069D03*
X01827D03*
Y01038D03*
X01548Y00892D03*
Y00924D03*
X01588D03*
Y00892D03*
X01686Y01038D03*
Y01069D03*
X01721Y01038D03*
Y01069D03*
X01756Y01038D03*
Y01069D03*
X01791Y01038D03*
Y01069D03*
G54D25*
X01844Y00731D03*
X01943D03*
G54D26*
X01791Y00416D03*
X01962D03*
X01713D03*
X01542D03*
G36*
X02633Y01381D02*
X02638Y01375D01*
X02641Y01368*
Y01364*
Y01341*
Y01337*
X02638Y0133*
X02633Y01324*
X02625Y01321*
X02622*
X02618*
X0261Y01324*
X02605Y0133*
X02602Y01337*
Y01341*
Y01364*
Y01368*
X02605Y01375*
X0261Y01381*
X02618Y01384*
X02625*
X02633Y01381*
G37*
G36*
X02293D02*
X02298Y01375D01*
X02301Y01368*
Y01364*
Y01341*
Y01337*
X02298Y0133*
X02293Y01324*
X02285Y01321*
X02281*
X02278*
X0227Y01324*
X02265Y0133*
X02262Y01337*
Y01341*
Y01364*
Y01368*
X02265Y01375*
X0227Y01381*
X02278Y01384*
X02285*
X02293Y01381*
G37*
G36*
X02625Y01229D02*
X02633Y01226D01*
X02638Y0122*
X02641Y01213*
Y01209*
Y01166*
Y01162*
X02638Y01155*
X02633Y01149*
X02625Y01146*
X02622*
X02618Y01146*
X0261Y01149*
X02605Y01155*
X02602Y01162*
X02602Y01166*
X02602*
Y01209*
Y01213*
X02605Y0122*
X0261Y01226*
X02618Y01229*
X02622*
X02625*
G37*
G36*
X02285D02*
X02293Y01226D01*
X02298Y0122*
X02301Y01213*
Y01209*
Y01166*
Y01162*
X02298Y01155*
X02293Y01149*
X02285Y01146*
X02281*
X02281*
X02278Y01146*
X0227Y01149*
X02265Y01155*
X02262Y01162*
X02262Y01166*
X02262*
Y01209*
Y01213*
X02265Y0122*
X0227Y01226*
X02278Y01229*
X02281*
X02285*
G37*
G54D14*
X02325Y01152D03*
X02355D03*
X02578Y01152D03*
X02548Y01152D03*
G54D15*
X0252Y01152D03*
X02501D03*
X02481D03*
X02383D03*
X02402D03*
X02422D03*
X02442D03*
X02461D03*
G54D16*
X02523Y00928D03*
Y00912D03*
Y00896D03*
Y0088D03*
Y00865D03*
Y00849D03*
Y00833D03*
Y00817D03*
X02507Y00928D03*
Y00912D03*
Y00896D03*
Y0088D03*
Y00865D03*
Y00849D03*
Y00833D03*
Y00817D03*
X02491Y00928D03*
Y00912D03*
Y00896D03*
Y0088D03*
Y00865D03*
Y00849D03*
Y00833D03*
Y00817D03*
X02476Y00928D03*
Y00912D03*
Y00896D03*
Y0088D03*
Y00865D03*
Y00849D03*
Y00833D03*
Y00817D03*
X0246Y00928D03*
Y00912D03*
Y00896D03*
Y0088D03*
Y00865D03*
Y00849D03*
Y00833D03*
Y00817D03*
X02444Y00928D03*
Y00912D03*
Y00896D03*
Y0088D03*
Y00865D03*
Y00849D03*
Y00833D03*
Y00817D03*
X02428Y00928D03*
Y00912D03*
Y00896D03*
Y0088D03*
Y00865D03*
Y00849D03*
Y00833D03*
Y00817D03*
X02413Y00928D03*
Y00912D03*
Y00896D03*
Y0088D03*
Y00865D03*
Y00849D03*
Y00833D03*
Y00817D03*
G54D17*
X02666Y00853D03*
X02592D03*
Y00955D03*
X02629D03*
X02666D03*
G54D18*
X02287Y00815D03*
Y00851D03*
X02247Y00815D03*
Y00851D03*
G54D19*
X02428Y00739D03*
Y0077D03*
G54D20*
X02623Y01006D03*
X02572D03*
G54D21*
X0246Y00542D03*
Y00592D03*
Y00642D03*
Y00692D03*
X02247Y00542D03*
Y00592D03*
Y00642D03*
Y00692D03*
G54D22*
X02668Y01065D03*
X02582D03*
G54D23*
X0226Y005D03*
X02229D03*
X0266Y00806D03*
X02629D03*
X0257Y00664D03*
X02539D03*
X02618D03*
X02648D03*
G54D24*
X02542Y00534D03*
Y00502D03*
X02582Y00534D03*
Y00502D03*
X02542Y00609D03*
Y00577D03*
X02582Y00609D03*
Y00577D03*
X02393Y00739D03*
Y0077D03*
X02661Y00534D03*
Y00502D03*
Y00609D03*
Y00577D03*
X02621Y00609D03*
Y00577D03*
X0231Y01069D03*
Y01038D03*
X02275Y01069D03*
Y01038D03*
X0235D03*
Y01069D03*
X02527D03*
Y01038D03*
X02247Y00892D03*
Y00924D03*
X02287D03*
Y00892D03*
X02385Y01038D03*
Y01069D03*
X0242Y01038D03*
Y01069D03*
X02456Y01038D03*
Y01069D03*
X02491Y01038D03*
Y01069D03*
G54D25*
X02544Y00731D03*
X02643D03*
G54D26*
X02491Y00416D03*
X02662D03*
X02412D03*
X02241D03*
G36*
X03333Y01381D02*
X03338Y01375D01*
X03341Y01368*
Y01364*
Y01341*
Y01337*
X03338Y0133*
X03333Y01324*
X03325Y01321*
X03322*
X03318*
X0331Y01324*
X03305Y0133*
X03302Y01337*
Y01341*
Y01364*
Y01368*
X03305Y01375*
X0331Y01381*
X03318Y01384*
X03325*
X03333Y01381*
G37*
G36*
X02993D02*
X02998Y01375D01*
X03001Y01368*
Y01364*
Y01341*
Y01337*
X02998Y0133*
X02993Y01324*
X02985Y01321*
X02981*
X02978*
X0297Y01324*
X02965Y0133*
X02962Y01337*
Y01341*
Y01364*
Y01368*
X02965Y01375*
X0297Y01381*
X02978Y01384*
X02985*
X02993Y01381*
G37*
G36*
X03325Y01229D02*
X03333Y01226D01*
X03338Y0122*
X03341Y01213*
Y01209*
Y01166*
Y01162*
X03338Y01155*
X03333Y01149*
X03325Y01146*
X03322*
X03318Y01146*
X0331Y01149*
X03305Y01155*
X03302Y01162*
X03302Y01166*
X03302*
Y01209*
Y01213*
X03305Y0122*
X0331Y01226*
X03318Y01229*
X03322*
X03325*
G37*
G36*
X02985D02*
X02993Y01226D01*
X02998Y0122*
X03001Y01213*
Y01209*
Y01166*
Y01162*
X02998Y01155*
X02993Y01149*
X02985Y01146*
X02981*
X02981*
X02978Y01146*
X0297Y01149*
X02965Y01155*
X02962Y01162*
X02962Y01166*
X02962*
Y01209*
Y01213*
X02965Y0122*
X0297Y01226*
X02978Y01229*
X02981*
X02985*
G37*
G54D14*
X03025Y01152D03*
X03055D03*
X03278Y01152D03*
X03248Y01152D03*
G54D15*
X0322Y01152D03*
X03201D03*
X03181D03*
X03083D03*
X03102D03*
X03122D03*
X03142D03*
X03161D03*
G54D16*
X03223Y00928D03*
Y00912D03*
Y00896D03*
Y0088D03*
Y00865D03*
Y00849D03*
Y00833D03*
Y00817D03*
X03207Y00928D03*
Y00912D03*
Y00896D03*
Y0088D03*
Y00865D03*
Y00849D03*
Y00833D03*
Y00817D03*
X03191Y00928D03*
Y00912D03*
Y00896D03*
Y0088D03*
Y00865D03*
Y00849D03*
Y00833D03*
Y00817D03*
X03176Y00928D03*
Y00912D03*
Y00896D03*
Y0088D03*
Y00865D03*
Y00849D03*
Y00833D03*
Y00817D03*
X0316Y00928D03*
Y00912D03*
Y00896D03*
Y0088D03*
Y00865D03*
Y00849D03*
Y00833D03*
Y00817D03*
X03144Y00928D03*
Y00912D03*
Y00896D03*
Y0088D03*
Y00865D03*
Y00849D03*
Y00833D03*
Y00817D03*
X03128Y00928D03*
Y00912D03*
Y00896D03*
Y0088D03*
Y00865D03*
Y00849D03*
Y00833D03*
Y00817D03*
X03113Y00928D03*
Y00912D03*
Y00896D03*
Y0088D03*
Y00865D03*
Y00849D03*
Y00833D03*
Y00817D03*
G54D17*
X03366Y00853D03*
X03292D03*
Y00955D03*
X03329D03*
X03366D03*
G54D18*
X02987Y00815D03*
Y00851D03*
X02947Y00815D03*
Y00851D03*
G54D19*
X03128Y00739D03*
Y0077D03*
G54D20*
X03323Y01006D03*
X03272D03*
G54D21*
X0316Y00542D03*
Y00592D03*
Y00642D03*
Y00692D03*
X02947Y00542D03*
Y00592D03*
Y00642D03*
Y00692D03*
G54D22*
X03368Y01065D03*
X03282D03*
G54D23*
X0296Y005D03*
X02929D03*
X0336Y00806D03*
X03329D03*
X0327Y00664D03*
X03239D03*
X03318D03*
X03348D03*
G54D24*
X03242Y00534D03*
Y00502D03*
X03282Y00534D03*
Y00502D03*
X03242Y00609D03*
Y00577D03*
X03282Y00609D03*
Y00577D03*
X03093Y00739D03*
Y0077D03*
X03361Y00534D03*
Y00502D03*
Y00609D03*
Y00577D03*
X03321Y00609D03*
Y00577D03*
X0301Y01069D03*
Y01038D03*
X02975Y01069D03*
Y01038D03*
X0305D03*
Y01069D03*
X03227D03*
Y01038D03*
X02947Y00892D03*
Y00924D03*
X02987D03*
Y00892D03*
X03085Y01038D03*
Y01069D03*
X0312Y01038D03*
Y01069D03*
X03156Y01038D03*
Y01069D03*
X03191Y01038D03*
Y01069D03*
G54D25*
X03244Y00731D03*
X03343D03*
G54D26*
X03191Y00416D03*
X03362D03*
X03112D03*
X02941D03*
G36*
X00534Y0278D02*
X00539Y02774D01*
X00542Y02767*
Y02763*
Y0274*
Y02736*
X00539Y02729*
X00534Y02723*
X00526Y0272*
X00523*
X00519*
X00511Y02723*
X00506Y02729*
X00503Y02736*
Y0274*
Y02763*
Y02767*
X00506Y02774*
X00511Y0278*
X00519Y02783*
X00526*
X00534Y0278*
G37*
G36*
X00194D02*
X00199Y02774D01*
X00202Y02767*
Y02763*
Y0274*
Y02736*
X00199Y02729*
X00194Y02723*
X00186Y0272*
X00182*
X00179*
X00171Y02723*
X00166Y02729*
X00163Y02736*
Y0274*
Y02763*
Y02767*
X00166Y02774*
X00171Y0278*
X00179Y02783*
X00186*
X00194Y0278*
G37*
G36*
X00526Y02628D02*
X00534Y02625D01*
X00539Y02619*
X00542Y02612*
Y02608*
Y02565*
Y02561*
X00539Y02554*
X00534Y02548*
X00526Y02545*
X00523*
X00519Y02545*
X00511Y02548*
X00506Y02554*
X00503Y02561*
X00503Y02565*
X00503*
Y02608*
Y02612*
X00506Y02619*
X00511Y02625*
X00519Y02628*
X00523*
X00526*
G37*
G36*
X00186D02*
X00194Y02625D01*
X00199Y02619*
X00202Y02612*
Y02608*
Y02565*
Y02561*
X00199Y02554*
X00194Y02548*
X00186Y02545*
X00182*
X00182*
X00179Y02545*
X00171Y02548*
X00166Y02554*
X00163Y02561*
X00163Y02565*
X00163*
Y02608*
Y02612*
X00166Y02619*
X00171Y02625*
X00179Y02628*
X00182*
X00186*
G37*
G54D14*
X00226Y02551D03*
X00256D03*
X00479Y02551D03*
X00449Y02551D03*
G54D15*
X00421Y02551D03*
X00402D03*
X00382D03*
X00284D03*
X00303D03*
X00323D03*
X00343D03*
X00362D03*
G54D16*
X00424Y02327D03*
Y02311D03*
Y02295D03*
Y02279D03*
Y02264D03*
Y02248D03*
Y02232D03*
Y02216D03*
X00408Y02327D03*
Y02311D03*
Y02295D03*
Y02279D03*
Y02264D03*
Y02248D03*
Y02232D03*
Y02216D03*
X00392Y02327D03*
Y02311D03*
Y02295D03*
Y02279D03*
Y02264D03*
Y02248D03*
Y02232D03*
Y02216D03*
X00377Y02327D03*
Y02311D03*
Y02295D03*
Y02279D03*
Y02264D03*
Y02248D03*
Y02232D03*
Y02216D03*
X00361Y02327D03*
Y02311D03*
Y02295D03*
Y02279D03*
Y02264D03*
Y02248D03*
Y02232D03*
Y02216D03*
X00345Y02327D03*
Y02311D03*
Y02295D03*
Y02279D03*
Y02264D03*
Y02248D03*
Y02232D03*
Y02216D03*
X00329Y02327D03*
Y02311D03*
Y02295D03*
Y02279D03*
Y02264D03*
Y02248D03*
Y02232D03*
Y02216D03*
X00314Y02327D03*
Y02311D03*
Y02295D03*
Y02279D03*
Y02264D03*
Y02248D03*
Y02232D03*
Y02216D03*
G54D17*
X00567Y02252D03*
X00493D03*
Y02354D03*
X0053D03*
X00567D03*
G54D18*
X00188Y02214D03*
Y0225D03*
X00148Y02214D03*
Y0225D03*
G54D19*
X00329Y02138D03*
Y02169D03*
G54D20*
X00524Y02405D03*
X00473D03*
G54D21*
X00361Y01941D03*
Y01991D03*
Y02041D03*
Y02091D03*
X00148Y01941D03*
Y01991D03*
Y02041D03*
Y02091D03*
G54D22*
X00569Y02464D03*
X00483D03*
G54D23*
X00161Y01899D03*
X0013D03*
X00561Y02205D03*
X0053D03*
X00471Y02063D03*
X0044D03*
X00519D03*
X00549D03*
G54D24*
X00443Y01933D03*
Y01902D03*
X00483Y01933D03*
Y01902D03*
X00443Y02008D03*
Y01976D03*
X00483Y02008D03*
Y01976D03*
X00294Y02138D03*
Y02169D03*
X00562Y01933D03*
Y01902D03*
Y02008D03*
Y01976D03*
X00522Y02008D03*
Y01976D03*
X00211Y02468D03*
Y02437D03*
X00176Y02468D03*
Y02437D03*
X00251D03*
Y02468D03*
X00428D03*
Y02437D03*
X00148Y02291D03*
Y02323D03*
X00188D03*
Y02291D03*
X00286Y02437D03*
Y02468D03*
X00321Y02437D03*
Y02468D03*
X00357Y02437D03*
Y02468D03*
X00392Y02437D03*
Y02468D03*
G54D25*
X00445Y0213D03*
X00544D03*
G54D26*
X00392Y01815D03*
X00563D03*
X00313D03*
X00142D03*
G36*
X01234Y0278D02*
X01239Y02774D01*
X01242Y02767*
Y02763*
Y0274*
Y02736*
X01239Y02729*
X01234Y02723*
X01226Y0272*
X01223*
X01219*
X01211Y02723*
X01206Y02729*
X01203Y02736*
Y0274*
Y02763*
Y02767*
X01206Y02774*
X01211Y0278*
X01219Y02783*
X01226*
X01234Y0278*
G37*
G36*
X00894D02*
X00899Y02774D01*
X00902Y02767*
Y02763*
Y0274*
Y02736*
X00899Y02729*
X00894Y02723*
X00886Y0272*
X00882*
X00879*
X00871Y02723*
X00866Y02729*
X00863Y02736*
Y0274*
Y02763*
Y02767*
X00866Y02774*
X00871Y0278*
X00879Y02783*
X00886*
X00894Y0278*
G37*
G36*
X01226Y02628D02*
X01234Y02625D01*
X01239Y02619*
X01242Y02612*
Y02608*
Y02565*
Y02561*
X01239Y02554*
X01234Y02548*
X01226Y02545*
X01223*
X01219Y02545*
X01211Y02548*
X01206Y02554*
X01203Y02561*
X01203Y02565*
X01203*
Y02608*
Y02612*
X01206Y02619*
X01211Y02625*
X01219Y02628*
X01223*
X01226*
G37*
G36*
X00886D02*
X00894Y02625D01*
X00899Y02619*
X00902Y02612*
Y02608*
Y02565*
Y02561*
X00899Y02554*
X00894Y02548*
X00886Y02545*
X00882*
X00882*
X00879Y02545*
X00871Y02548*
X00866Y02554*
X00863Y02561*
X00863Y02565*
X00863*
Y02608*
Y02612*
X00866Y02619*
X00871Y02625*
X00879Y02628*
X00882*
X00886*
G37*
G54D14*
X00926Y02551D03*
X00956D03*
X01179Y02551D03*
X01149Y02551D03*
G54D15*
X01121Y02551D03*
X01102D03*
X01082D03*
X00984D03*
X01003D03*
X01023D03*
X01043D03*
X01062D03*
G54D16*
X01124Y02327D03*
Y02311D03*
Y02295D03*
Y02279D03*
Y02264D03*
Y02248D03*
Y02232D03*
Y02216D03*
X01108Y02327D03*
Y02311D03*
Y02295D03*
Y02279D03*
Y02264D03*
Y02248D03*
Y02232D03*
Y02216D03*
X01092Y02327D03*
Y02311D03*
Y02295D03*
Y02279D03*
Y02264D03*
Y02248D03*
Y02232D03*
Y02216D03*
X01077Y02327D03*
Y02311D03*
Y02295D03*
Y02279D03*
Y02264D03*
Y02248D03*
Y02232D03*
Y02216D03*
X01061Y02327D03*
Y02311D03*
Y02295D03*
Y02279D03*
Y02264D03*
Y02248D03*
Y02232D03*
Y02216D03*
X01045Y02327D03*
Y02311D03*
Y02295D03*
Y02279D03*
Y02264D03*
Y02248D03*
Y02232D03*
Y02216D03*
X01029Y02327D03*
Y02311D03*
Y02295D03*
Y02279D03*
Y02264D03*
Y02248D03*
Y02232D03*
Y02216D03*
X01014Y02327D03*
Y02311D03*
Y02295D03*
Y02279D03*
Y02264D03*
Y02248D03*
Y02232D03*
Y02216D03*
G54D17*
X01267Y02252D03*
X01193D03*
Y02354D03*
X0123D03*
X01267D03*
G54D18*
X00888Y02214D03*
Y0225D03*
X00848Y02214D03*
Y0225D03*
G54D19*
X01029Y02138D03*
Y02169D03*
G54D20*
X01224Y02405D03*
X01173D03*
G54D21*
X01061Y01941D03*
Y01991D03*
Y02041D03*
Y02091D03*
X00848Y01941D03*
Y01991D03*
Y02041D03*
Y02091D03*
G54D22*
X01269Y02464D03*
X01183D03*
G54D23*
X00861Y01899D03*
X0083D03*
X01261Y02205D03*
X0123D03*
X01171Y02063D03*
X0114D03*
X01219D03*
X01249D03*
G54D24*
X01143Y01933D03*
Y01902D03*
X01183Y01933D03*
Y01902D03*
X01143Y02008D03*
Y01976D03*
X01183Y02008D03*
Y01976D03*
X00994Y02138D03*
Y02169D03*
X01262Y01933D03*
Y01902D03*
Y02008D03*
Y01976D03*
X01222Y02008D03*
Y01976D03*
X00911Y02468D03*
Y02437D03*
X00876Y02468D03*
Y02437D03*
X00951D03*
Y02468D03*
X01128D03*
Y02437D03*
X00848Y02291D03*
Y02323D03*
X00888D03*
Y02291D03*
X00986Y02437D03*
Y02468D03*
X01021Y02437D03*
Y02468D03*
X01057Y02437D03*
Y02468D03*
X01092Y02437D03*
Y02468D03*
G54D25*
X01145Y0213D03*
X01244D03*
G54D26*
X01092Y01815D03*
X01263D03*
X01013D03*
X00842D03*
G36*
X01933Y0278D02*
X01938Y02774D01*
X01941Y02767*
Y02763*
Y0274*
Y02736*
X01938Y02729*
X01933Y02723*
X01925Y0272*
X01922*
X01918*
X0191Y02723*
X01905Y02729*
X01902Y02736*
Y0274*
Y02763*
Y02767*
X01905Y02774*
X0191Y0278*
X01918Y02783*
X01925*
X01933Y0278*
G37*
G36*
X01594D02*
X01599Y02774D01*
X01602Y02767*
Y02763*
Y0274*
Y02736*
X01599Y02729*
X01594Y02723*
X01586Y0272*
X01582*
X01579*
X01571Y02723*
X01566Y02729*
X01563Y02736*
Y0274*
Y02763*
Y02767*
X01566Y02774*
X01571Y0278*
X01579Y02783*
X01586*
X01594Y0278*
G37*
G36*
X01925Y02628D02*
X01933Y02625D01*
X01938Y02619*
X01941Y02612*
Y02608*
Y02565*
Y02561*
X01938Y02554*
X01933Y02548*
X01925Y02545*
X01922*
X01918Y02545*
X0191Y02548*
X01905Y02554*
X01902Y02561*
X01902Y02565*
X01902*
Y02608*
Y02612*
X01905Y02619*
X0191Y02625*
X01918Y02628*
X01922*
X01925*
G37*
G36*
X01586D02*
X01594Y02625D01*
X01599Y02619*
X01602Y02612*
Y02608*
Y02565*
Y02561*
X01599Y02554*
X01594Y02548*
X01586Y02545*
X01582*
X01582*
X01579Y02545*
X01571Y02548*
X01566Y02554*
X01563Y02561*
X01563Y02565*
X01563*
Y02608*
Y02612*
X01566Y02619*
X01571Y02625*
X01579Y02628*
X01582*
X01586*
G37*
G54D14*
X01626Y02551D03*
X01656D03*
X01878Y02551D03*
X01848Y02551D03*
G54D15*
X0182Y02551D03*
X01801D03*
X01781D03*
X01684D03*
X01703D03*
X01723D03*
X01743D03*
X01761D03*
G54D16*
X01823Y02327D03*
Y02311D03*
Y02295D03*
Y02279D03*
Y02264D03*
Y02248D03*
Y02232D03*
Y02216D03*
X01807Y02327D03*
Y02311D03*
Y02295D03*
Y02279D03*
Y02264D03*
Y02248D03*
Y02232D03*
Y02216D03*
X01791Y02327D03*
Y02311D03*
Y02295D03*
Y02279D03*
Y02264D03*
Y02248D03*
Y02232D03*
Y02216D03*
X01776Y02327D03*
Y02311D03*
Y02295D03*
Y02279D03*
Y02264D03*
Y02248D03*
Y02232D03*
Y02216D03*
X0176Y02327D03*
Y02311D03*
Y02295D03*
Y02279D03*
Y02264D03*
Y02248D03*
Y02232D03*
Y02216D03*
X01745Y02327D03*
Y02311D03*
Y02295D03*
Y02279D03*
Y02264D03*
Y02248D03*
Y02232D03*
Y02216D03*
X01729Y02327D03*
Y02311D03*
Y02295D03*
Y02279D03*
Y02264D03*
Y02248D03*
Y02232D03*
Y02216D03*
X01714Y02327D03*
Y02311D03*
Y02295D03*
Y02279D03*
Y02264D03*
Y02248D03*
Y02232D03*
Y02216D03*
G54D17*
X01966Y02252D03*
X01892D03*
Y02354D03*
X01929D03*
X01966D03*
G54D18*
X01588Y02214D03*
Y0225D03*
X01548Y02214D03*
Y0225D03*
G54D19*
X01729Y02138D03*
Y02169D03*
G54D20*
X01923Y02405D03*
X01872D03*
G54D21*
X0176Y01941D03*
Y01991D03*
Y02041D03*
Y02091D03*
X01548Y01941D03*
Y01991D03*
Y02041D03*
Y02091D03*
G54D22*
X01968Y02464D03*
X01882D03*
G54D23*
X01561Y01899D03*
X0153D03*
X0196Y02205D03*
X01929D03*
X0187Y02063D03*
X01839D03*
X01918D03*
X01948D03*
G54D24*
X01842Y01933D03*
Y01902D03*
X01882Y01933D03*
Y01902D03*
X01842Y02008D03*
Y01976D03*
X01882Y02008D03*
Y01976D03*
X01694Y02138D03*
Y02169D03*
X01961Y01933D03*
Y01902D03*
Y02008D03*
Y01976D03*
X01921Y02008D03*
Y01976D03*
X01611Y02468D03*
Y02437D03*
X01576Y02468D03*
Y02437D03*
X01651D03*
Y02468D03*
X01827D03*
Y02437D03*
X01548Y02291D03*
Y02323D03*
X01588D03*
Y02291D03*
X01686Y02437D03*
Y02468D03*
X01721Y02437D03*
Y02468D03*
X01756Y02437D03*
Y02468D03*
X01791Y02437D03*
Y02468D03*
G54D25*
X01844Y0213D03*
X01943D03*
G54D26*
X01791Y01815D03*
X01962D03*
X01713D03*
X01542D03*
G36*
X02633Y0278D02*
X02638Y02774D01*
X02641Y02767*
Y02763*
Y0274*
Y02736*
X02638Y02729*
X02633Y02723*
X02625Y0272*
X02622*
X02618*
X0261Y02723*
X02605Y02729*
X02602Y02736*
Y0274*
Y02763*
Y02767*
X02605Y02774*
X0261Y0278*
X02618Y02783*
X02625*
X02633Y0278*
G37*
G36*
X02293D02*
X02298Y02774D01*
X02301Y02767*
Y02763*
Y0274*
Y02736*
X02298Y02729*
X02293Y02723*
X02285Y0272*
X02281*
X02278*
X0227Y02723*
X02265Y02729*
X02262Y02736*
Y0274*
Y02763*
Y02767*
X02265Y02774*
X0227Y0278*
X02278Y02783*
X02285*
X02293Y0278*
G37*
G36*
X02625Y02628D02*
X02633Y02625D01*
X02638Y02619*
X02641Y02612*
Y02608*
Y02565*
Y02561*
X02638Y02554*
X02633Y02548*
X02625Y02545*
X02622*
X02618Y02545*
X0261Y02548*
X02605Y02554*
X02602Y02561*
X02602Y02565*
X02602*
Y02608*
Y02612*
X02605Y02619*
X0261Y02625*
X02618Y02628*
X02622*
X02625*
G37*
G36*
X02285D02*
X02293Y02625D01*
X02298Y02619*
X02301Y02612*
Y02608*
Y02565*
Y02561*
X02298Y02554*
X02293Y02548*
X02285Y02545*
X02281*
X02281*
X02278Y02545*
X0227Y02548*
X02265Y02554*
X02262Y02561*
X02262Y02565*
X02262*
Y02608*
Y02612*
X02265Y02619*
X0227Y02625*
X02278Y02628*
X02281*
X02285*
G37*
G54D14*
X02325Y02551D03*
X02355D03*
X02578Y02551D03*
X02548Y02551D03*
G54D15*
X0252Y02551D03*
X02501D03*
X02481D03*
X02383D03*
X02402D03*
X02422D03*
X02442D03*
X02461D03*
G54D16*
X02523Y02327D03*
Y02311D03*
Y02295D03*
Y02279D03*
Y02264D03*
Y02248D03*
Y02232D03*
Y02216D03*
X02507Y02327D03*
Y02311D03*
Y02295D03*
Y02279D03*
Y02264D03*
Y02248D03*
Y02232D03*
Y02216D03*
X02491Y02327D03*
Y02311D03*
Y02295D03*
Y02279D03*
Y02264D03*
Y02248D03*
Y02232D03*
Y02216D03*
X02476Y02327D03*
Y02311D03*
Y02295D03*
Y02279D03*
Y02264D03*
Y02248D03*
Y02232D03*
Y02216D03*
X0246Y02327D03*
Y02311D03*
Y02295D03*
Y02279D03*
Y02264D03*
Y02248D03*
Y02232D03*
Y02216D03*
X02444Y02327D03*
Y02311D03*
Y02295D03*
Y02279D03*
Y02264D03*
Y02248D03*
Y02232D03*
Y02216D03*
X02428Y02327D03*
Y02311D03*
Y02295D03*
Y02279D03*
Y02264D03*
Y02248D03*
Y02232D03*
Y02216D03*
X02413Y02327D03*
Y02311D03*
Y02295D03*
Y02279D03*
Y02264D03*
Y02248D03*
Y02232D03*
Y02216D03*
G54D17*
X02666Y02252D03*
X02592D03*
Y02354D03*
X02629D03*
X02666D03*
G54D18*
X02287Y02214D03*
Y0225D03*
X02247Y02214D03*
Y0225D03*
G54D19*
X02428Y02138D03*
Y02169D03*
G54D20*
X02623Y02405D03*
X02572D03*
G54D21*
X0246Y01941D03*
Y01991D03*
Y02041D03*
Y02091D03*
X02247Y01941D03*
Y01991D03*
Y02041D03*
Y02091D03*
G54D22*
X02668Y02464D03*
X02582D03*
G54D23*
X0226Y01899D03*
X02229D03*
X0266Y02205D03*
X02629D03*
X0257Y02063D03*
X02539D03*
X02618D03*
X02648D03*
G54D24*
X02542Y01933D03*
Y01902D03*
X02582Y01933D03*
Y01902D03*
X02542Y02008D03*
Y01976D03*
X02582Y02008D03*
Y01976D03*
X02393Y02138D03*
Y02169D03*
X02661Y01933D03*
Y01902D03*
Y02008D03*
Y01976D03*
X02621Y02008D03*
Y01976D03*
X0231Y02468D03*
Y02437D03*
X02275Y02468D03*
Y02437D03*
X0235D03*
Y02468D03*
X02527D03*
Y02437D03*
X02247Y02291D03*
Y02323D03*
X02287D03*
Y02291D03*
X02385Y02437D03*
Y02468D03*
X0242Y02437D03*
Y02468D03*
X02456Y02437D03*
Y02468D03*
X02491Y02437D03*
Y02468D03*
G54D25*
X02544Y0213D03*
X02643D03*
G54D26*
X02491Y01815D03*
X02662D03*
X02412D03*
X02241D03*
G36*
X03333Y0278D02*
X03338Y02774D01*
X03341Y02767*
Y02763*
Y0274*
Y02736*
X03338Y02729*
X03333Y02723*
X03325Y0272*
X03322*
X03318*
X0331Y02723*
X03305Y02729*
X03302Y02736*
Y0274*
Y02763*
Y02767*
X03305Y02774*
X0331Y0278*
X03318Y02783*
X03325*
X03333Y0278*
G37*
G36*
X02993D02*
X02998Y02774D01*
X03001Y02767*
Y02763*
Y0274*
Y02736*
X02998Y02729*
X02993Y02723*
X02985Y0272*
X02981*
X02978*
X0297Y02723*
X02965Y02729*
X02962Y02736*
Y0274*
Y02763*
Y02767*
X02965Y02774*
X0297Y0278*
X02978Y02783*
X02985*
X02993Y0278*
G37*
G36*
X03325Y02628D02*
X03333Y02625D01*
X03338Y02619*
X03341Y02612*
Y02608*
Y02565*
Y02561*
X03338Y02554*
X03333Y02548*
X03325Y02545*
X03322*
X03318Y02545*
X0331Y02548*
X03305Y02554*
X03302Y02561*
X03302Y02565*
X03302*
Y02608*
Y02612*
X03305Y02619*
X0331Y02625*
X03318Y02628*
X03322*
X03325*
G37*
G36*
X02985D02*
X02993Y02625D01*
X02998Y02619*
X03001Y02612*
Y02608*
Y02565*
Y02561*
X02998Y02554*
X02993Y02548*
X02985Y02545*
X02981*
X02981*
X02978Y02545*
X0297Y02548*
X02965Y02554*
X02962Y02561*
X02962Y02565*
X02962*
Y02608*
Y02612*
X02965Y02619*
X0297Y02625*
X02978Y02628*
X02981*
X02985*
G37*
G54D14*
X03025Y02551D03*
X03055D03*
X03278Y02551D03*
X03248Y02551D03*
G54D15*
X0322Y02551D03*
X03201D03*
X03181D03*
X03083D03*
X03102D03*
X03122D03*
X03142D03*
X03161D03*
G54D16*
X03223Y02327D03*
Y02311D03*
Y02295D03*
Y02279D03*
Y02264D03*
Y02248D03*
Y02232D03*
Y02216D03*
X03207Y02327D03*
Y02311D03*
Y02295D03*
Y02279D03*
Y02264D03*
Y02248D03*
Y02232D03*
Y02216D03*
X03191Y02327D03*
Y02311D03*
Y02295D03*
Y02279D03*
Y02264D03*
Y02248D03*
Y02232D03*
Y02216D03*
X03176Y02327D03*
Y02311D03*
Y02295D03*
Y02279D03*
Y02264D03*
Y02248D03*
Y02232D03*
Y02216D03*
X0316Y02327D03*
Y02311D03*
Y02295D03*
Y02279D03*
Y02264D03*
Y02248D03*
Y02232D03*
Y02216D03*
X03144Y02327D03*
Y02311D03*
Y02295D03*
Y02279D03*
Y02264D03*
Y02248D03*
Y02232D03*
Y02216D03*
X03128Y02327D03*
Y02311D03*
Y02295D03*
Y02279D03*
Y02264D03*
Y02248D03*
Y02232D03*
Y02216D03*
X03113Y02327D03*
Y02311D03*
Y02295D03*
Y02279D03*
Y02264D03*
Y02248D03*
Y02232D03*
Y02216D03*
G54D17*
X03366Y02252D03*
X03292D03*
Y02354D03*
X03329D03*
X03366D03*
G54D18*
X02987Y02214D03*
Y0225D03*
X02947Y02214D03*
Y0225D03*
G54D19*
X03128Y02138D03*
Y02169D03*
G54D20*
X03323Y02405D03*
X03272D03*
G54D21*
X0316Y01941D03*
Y01991D03*
Y02041D03*
Y02091D03*
X02947Y01941D03*
Y01991D03*
Y02041D03*
Y02091D03*
G54D22*
X03368Y02464D03*
X03282D03*
G54D23*
X0296Y01899D03*
X02929D03*
X0336Y02205D03*
X03329D03*
X0327Y02063D03*
X03239D03*
X03318D03*
X03348D03*
G54D24*
X03242Y01933D03*
Y01902D03*
X03282Y01933D03*
Y01902D03*
X03242Y02008D03*
Y01976D03*
X03282Y02008D03*
Y01976D03*
X03093Y02138D03*
Y02169D03*
X03361Y01933D03*
Y01902D03*
Y02008D03*
Y01976D03*
X03321Y02008D03*
Y01976D03*
X0301Y02468D03*
Y02437D03*
X02975Y02468D03*
Y02437D03*
X0305D03*
Y02468D03*
X03227D03*
Y02437D03*
X02947Y02291D03*
Y02323D03*
X02987D03*
Y02291D03*
X03085Y02437D03*
Y02468D03*
X0312Y02437D03*
Y02468D03*
X03156Y02437D03*
Y02468D03*
X03191Y02437D03*
Y02468D03*
G54D25*
X03244Y0213D03*
X03343D03*
G54D26*
X03191Y01815D03*
X03362D03*
X03112D03*
X02941D03*
G54D56*
X0Y0D02*
X03504D01*
Y02804*
X0*
Y0*
G54D54*
X00002Y01402D02*
Y02802D01*
G54D56*
X0Y0D02*
X03504D01*
Y02804*
X0*
Y0*
G54D54*
X00002Y02802D02*
X00702D01*
G54D9502*
X00052Y00052D03*
X03452Y02752D03*
M02*